<?xml version="1.0" encoding="UTF-8" standalone="no"?>
<!DOCTYPE svg PUBLIC "-//W3C//DTD SVG 1.1//EN"
 "http://www.w3.org/Graphics/SVG/1.1/DTD/svg11.dtd">
<!-- Generated by graphviz version 2.30.1 (20180420.1509)
 -->
<!-- Title: rng; 325 samples Pages: 1 -->
<svg width="100%" height="100%"
  xmlns="http://www.w3.org/2000/svg" xmlns:xlink="http://www.w3.org/1999/xlink">
<script type="text/ecmascript"><![CDATA[
// SVGPan
// http://www.cyberz.org/blog/2009/12/08/svgpan-a-javascript-svg-panzoomdrag-library/
// Local modification: if(true || ...) below to force panning, never moving.

/**
 *  SVGPan library 1.2
 * ====================
 *
 * Given an unique existing element with id "viewport", including the
 * the library into any SVG adds the following capabilities:
 *
 *  - Mouse panning
 *  - Mouse zooming (using the wheel)
 *  - Object dargging
 *
 * Known issues:
 *
 *  - Zooming (while panning) on Safari has still some issues
 *
 * Releases:
 *
 * 1.2, Sat Mar 20 08:42:50 GMT 2010, Zeng Xiaohui
 *	Fixed a bug with browser mouse handler interaction
 *
 * 1.1, Wed Feb  3 17:39:33 GMT 2010, Zeng Xiaohui
 *	Updated the zoom code to support the mouse wheel on Safari/Chrome
 *
 * 1.0, Andrea Leofreddi
 *	First release
 *
 * This code is licensed under the following BSD license:
 *
 * Copyright 2009-2010 Andrea Leofreddi <a.leofreddi@itcharm.com>. All rights reserved.
 *
 * Redistribution and use in source and binary forms, with or without modification, are
 * permitted provided that the following conditions are met:
 *
 *    1. Redistributions of source code must retain the above copyright notice, this list of
 *       conditions and the following disclaimer.
 *
 *    2. Redistributions in binary form must reproduce the above copyright notice, this list
 *       of conditions and the following disclaimer in the documentation and/or other materials
 *       provided with the distribution.
 *
 * THIS SOFTWARE IS PROVIDED BY Andrea Leofreddi ``AS IS'' AND ANY EXPRESS OR IMPLIED
 * WARRANTIES, INCLUDING, BUT NOT LIMITED TO, THE IMPLIED WARRANTIES OF MERCHANTABILITY AND
 * FITNESS FOR A PARTICULAR PURPOSE ARE DISCLAIMED. IN NO EVENT SHALL Andrea Leofreddi OR
 * CONTRIBUTORS BE LIABLE FOR ANY DIRECT, INDIRECT, INCIDENTAL, SPECIAL, EXEMPLARY, OR
 * CONSEQUENTIAL DAMAGES (INCLUDING, BUT NOT LIMITED TO, PROCUREMENT OF SUBSTITUTE GOODS OR
 * SERVICES; LOSS OF USE, DATA, OR PROFITS; OR BUSINESS INTERRUPTION) HOWEVER CAUSED AND ON
 * ANY THEORY OF LIABILITY, WHETHER IN CONTRACT, STRICT LIABILITY, OR TORT (INCLUDING
 * NEGLIGENCE OR OTHERWISE) ARISING IN ANY WAY OUT OF THE USE OF THIS SOFTWARE, EVEN IF
 * ADVISED OF THE POSSIBILITY OF SUCH DAMAGE.
 *
 * The views and conclusions contained in the software and documentation are those of the
 * authors and should not be interpreted as representing official policies, either expressed
 * or implied, of Andrea Leofreddi.
 */

var root = document.documentElement;

var state = 'none', stateTarget, stateOrigin, stateTf;

setupHandlers(root);

/**
 * Register handlers
 */
function setupHandlers(root){
	setAttributes(root, {
		"onmouseup" : "add(evt)",
		"onmousedown" : "handleMouseDown(evt)",
		"onmousemove" : "handleMouseMove(evt)",
		"onmouseup" : "handleMouseUp(evt)",
		//"onmouseout" : "handleMouseUp(evt)", // Decomment this to stop the pan functionality when dragging out of the SVG element
	});

	if(navigator.userAgent.toLowerCase().indexOf('webkit') >= 0)
		window.addEventListener('mousewheel', handleMouseWheel, false); // Chrome/Safari
	else
		window.addEventListener('DOMMouseScroll', handleMouseWheel, false); // Others

	var g = svgDoc.getElementById("svg");
	g.width = "100%";
	g.height = "100%";
}

/**
 * Instance an SVGPoint object with given event coordinates.
 */
function getEventPoint(evt) {
	var p = root.createSVGPoint();

	p.x = evt.clientX;
	p.y = evt.clientY;

	return p;
}

/**
 * Sets the current transform matrix of an element.
 */
function setCTM(element, matrix) {
	var s = "matrix(" + matrix.a + "," + matrix.b + "," + matrix.c + "," + matrix.d + "," + matrix.e + "," + matrix.f + ")";

	element.setAttribute("transform", s);
}

/**
 * Dumps a matrix to a string (useful for debug).
 */
function dumpMatrix(matrix) {
	var s = "[ " + matrix.a + ", " + matrix.c + ", " + matrix.e + "\n  " + matrix.b + ", " + matrix.d + ", " + matrix.f + "\n  0, 0, 1 ]";

	return s;
}

/**
 * Sets attributes of an element.
 */
function setAttributes(element, attributes){
	for (i in attributes)
		element.setAttributeNS(null, i, attributes[i]);
}

/**
 * Handle mouse move event.
 */
function handleMouseWheel(evt) {
	if(evt.preventDefault)
		evt.preventDefault();

	evt.returnValue = false;

	var svgDoc = evt.target.ownerDocument;

	var delta;

	if(evt.wheelDelta)
		delta = evt.wheelDelta / 3600; // Chrome/Safari
	else
		delta = evt.detail / -90; // Mozilla

	var z = 1 + delta; // Zoom factor: 0.9/1.1

	var g = svgDoc.getElementById("viewport");

	var p = getEventPoint(evt);

	p = p.matrixTransform(g.getCTM().inverse());

	// Compute new scale matrix in current mouse position
	var k = root.createSVGMatrix().translate(p.x, p.y).scale(z).translate(-p.x, -p.y);

        setCTM(g, g.getCTM().multiply(k));

	stateTf = stateTf.multiply(k.inverse());
}

/**
 * Handle mouse move event.
 */
function handleMouseMove(evt) {
	if(evt.preventDefault)
		evt.preventDefault();

	evt.returnValue = false;

	var svgDoc = evt.target.ownerDocument;

	var g = svgDoc.getElementById("viewport");

	if(state == 'pan') {
		// Pan mode
		var p = getEventPoint(evt).matrixTransform(stateTf);

		setCTM(g, stateTf.inverse().translate(p.x - stateOrigin.x, p.y - stateOrigin.y));
	} else if(state == 'move') {
		// Move mode
		var p = getEventPoint(evt).matrixTransform(g.getCTM().inverse());

		setCTM(stateTarget, root.createSVGMatrix().translate(p.x - stateOrigin.x, p.y - stateOrigin.y).multiply(g.getCTM().inverse()).multiply(stateTarget.getCTM()));

		stateOrigin = p;
	}
}

/**
 * Handle click event.
 */
function handleMouseDown(evt) {
	if(evt.preventDefault)
		evt.preventDefault();

	evt.returnValue = false;

	var svgDoc = evt.target.ownerDocument;

	var g = svgDoc.getElementById("viewport");

	if(true || evt.target.tagName == "svg") {
		// Pan mode
		state = 'pan';

		stateTf = g.getCTM().inverse();

		stateOrigin = getEventPoint(evt).matrixTransform(stateTf);
	} else {
		// Move mode
		state = 'move';

		stateTarget = evt.target;

		stateTf = g.getCTM().inverse();

		stateOrigin = getEventPoint(evt).matrixTransform(stateTf);
	}
}

/**
 * Handle mouse button release event.
 */
function handleMouseUp(evt) {
	if(evt.preventDefault)
		evt.preventDefault();

	evt.returnValue = false;

	var svgDoc = evt.target.ownerDocument;

	if(state == 'pan' || state == 'move') {
		// Quit pan mode
		state = '';
	}
}

]]></script>
<g id="viewport" transform="translate(0,0)">
<g id="viewport" class="graph" transform="scale(1 1) rotate(0) translate(4 2080)">
<title>rng; 325 samples</title>
<polygon fill="white" stroke="white" points="-4,5 -4,-2080 917,-2080 917,5 -4,5"/>
<!-- Legend -->
<g id="node1" class="node"><title>Legend</title>
<text text-anchor="start" x="246" y="-2052.8" font-family="Times,serif" font-size="24.00">rng</text>
<text text-anchor="start" x="246" y="-2026.8" font-family="Times,serif" font-size="24.00">Total samples: 325</text>
<text text-anchor="start" x="246" y="-2000.8" font-family="Times,serif" font-size="24.00">Focusing on: 325</text>
<text text-anchor="start" x="246" y="-1974.8" font-family="Times,serif" font-size="24.00">Dropped nodes with &lt;= 1 abs(samples)</text>
<text text-anchor="start" x="246" y="-1948.8" font-family="Times,serif" font-size="24.00">Dropped edges with &lt;= 0 samples</text>
</g>
<!-- N1 -->
<g id="node2" class="node"><title>N1</title>
<polygon fill="none" stroke="black" points="720,-1885.5 646,-1885.5 646,-1850.5 720,-1850.5 720,-1885.5"/>
<text text-anchor="middle" x="683" y="-1875.1" font-family="Times,serif" font-size="8.00">__libc_start_main</text>
<text text-anchor="end" x="712" y="-1866.1" font-family="Times,serif" font-size="8.00">0 (0.0%)</text>
<text text-anchor="end" x="712" y="-1857.1" font-family="Times,serif" font-size="8.00">of 325 (100.0%)</text>
</g>
<!-- N3 -->
<g id="node4" class="node"><title>N3</title>
<polygon fill="none" stroke="black" points="717.25,-1797.5 648.75,-1797.5 648.75,-1762.5 717.25,-1762.5 717.25,-1797.5"/>
<text text-anchor="middle" x="683" y="-1787.1" font-family="Times,serif" font-size="8.00">main</text>
<text text-anchor="end" x="709.5" y="-1778.1" font-family="Times,serif" font-size="8.00">0 (0.0%)</text>
<text text-anchor="end" x="709.5" y="-1769.1" font-family="Times,serif" font-size="8.00">of 325 (100.0%)</text>
</g>
<!-- N1&#45;&gt;N3 -->
<g id="edge3" class="edge"><title>N1&#45;&gt;N3</title>
<path fill="none" stroke="black" stroke-width="2" d="M683,-1850.42C683,-1838.28 683,-1821.56 683,-1807.58"/>
<polygon fill="black" stroke="black" points="686.5,-1807.53 683,-1797.53 679.5,-1807.53 686.5,-1807.53"/>
<text text-anchor="middle" x="693.5" y="-1820.3" font-family="Times,serif" font-size="14.00">325</text>
</g>
<!-- N2 -->
<g id="node3" class="node"><title>N2</title>
<polygon fill="none" stroke="black" points="717.25,-2024.5 648.75,-2024.5 648.75,-1989.5 717.25,-1989.5 717.25,-2024.5"/>
<text text-anchor="middle" x="683" y="-2014.1" font-family="Times,serif" font-size="8.00">_start</text>
<text text-anchor="end" x="709.5" y="-2005.1" font-family="Times,serif" font-size="8.00">0 (0.0%)</text>
<text text-anchor="end" x="709.5" y="-1996.1" font-family="Times,serif" font-size="8.00">of 325 (100.0%)</text>
</g>
<!-- N2&#45;&gt;N1 -->
<g id="edge1" class="edge"><title>N2&#45;&gt;N1</title>
<path fill="none" stroke="black" stroke-width="2" d="M683,-1989.47C683,-1966.23 683,-1923.61 683,-1895.8"/>
<polygon fill="black" stroke="black" points="686.5,-1895.58 683,-1885.58 679.5,-1895.58 686.5,-1895.58"/>
<text text-anchor="middle" x="693.5" y="-1908.3" font-family="Times,serif" font-size="14.00">325</text>
</g>
<!-- N4 -->
<g id="node5" class="node"><title>N4</title>
<polygon fill="none" stroke="black" points="717.25,-1710 648.75,-1710 648.75,-1666 717.25,-1666 717.25,-1710"/>
<text text-anchor="middle" x="683" y="-1699.6" font-family="Times,serif" font-size="8.00">run_calculation</text>
<text text-anchor="middle" x="683" y="-1690.6" font-family="Times,serif" font-size="8.00">(inline)</text>
<text text-anchor="end" x="709.5" y="-1681.6" font-family="Times,serif" font-size="8.00">0 (0.0%)</text>
<text text-anchor="end" x="709.5" y="-1672.6" font-family="Times,serif" font-size="8.00">of 325 (100.0%)</text>
</g>
<!-- N3&#45;&gt;N4 -->
<g id="edge2" class="edge"><title>N3&#45;&gt;N4</title>
<path fill="none" stroke="black" stroke-width="2" stroke-dasharray="5,2" d="M683,-1762.49C683,-1750.77 683,-1734.65 683,-1720.5"/>
<polygon fill="black" stroke="black" points="686.5,-1720.17 683,-1710.17 679.5,-1720.17 686.5,-1720.17"/>
<text text-anchor="middle" x="693.5" y="-1732.3" font-family="Times,serif" font-size="14.00">325</text>
</g>
<!-- N10 -->
<g id="node11" class="node"><title>N10</title>
<polygon fill="none" stroke="black" points="683.25,-1613.5 618.75,-1613.5 618.75,-1578.5 683.25,-1578.5 683.25,-1613.5"/>
<text text-anchor="middle" x="651" y="-1603.1" font-family="Times,serif" font-size="8.00">task1</text>
<text text-anchor="end" x="675.5" y="-1594.1" font-family="Times,serif" font-size="8.00">0 (0.0%)</text>
<text text-anchor="end" x="675.5" y="-1585.1" font-family="Times,serif" font-size="8.00">of 164 (50.5%)</text>
</g>
<!-- N4&#45;&gt;N10 -->
<g id="edge8" class="edge"><title>N4&#45;&gt;N10</title>
<path fill="none" stroke="black" stroke-width="2" d="M675.416,-1665.67C670.91,-1653 665.158,-1636.82 660.368,-1623.35"/>
<polygon fill="black" stroke="black" points="663.578,-1621.93 656.931,-1613.68 656.983,-1624.27 663.578,-1621.93"/>
<text text-anchor="middle" x="678.5" y="-1636.3" font-family="Times,serif" font-size="14.00">164</text>
</g>
<!-- N11 -->
<g id="node12" class="node"><title>N11</title>
<polygon fill="none" stroke="black" points="766.25,-1613.5 701.75,-1613.5 701.75,-1578.5 766.25,-1578.5 766.25,-1613.5"/>
<text text-anchor="middle" x="734" y="-1603.1" font-family="Times,serif" font-size="8.00">task2</text>
<text text-anchor="end" x="758.5" y="-1594.1" font-family="Times,serif" font-size="8.00">0 (0.0%)</text>
<text text-anchor="end" x="758.5" y="-1585.1" font-family="Times,serif" font-size="8.00">of 161 (49.5%)</text>
</g>
<!-- N4&#45;&gt;N11 -->
<g id="edge9" class="edge"><title>N4&#45;&gt;N11</title>
<path fill="none" stroke="black" stroke-width="2" d="M695.086,-1665.67C702.41,-1652.75 711.797,-1636.18 719.516,-1622.56"/>
<polygon fill="black" stroke="black" points="722.663,-1624.11 724.548,-1613.68 716.573,-1620.65 722.663,-1624.11"/>
<text text-anchor="middle" x="723.5" y="-1636.3" font-family="Times,serif" font-size="14.00">161</text>
</g>
<!-- N5 -->
<g id="node6" class="node"><title>N5</title>
<polygon fill="none" stroke="black" points="683.25,-1516.5 618.75,-1516.5 618.75,-1481.5 683.25,-1481.5 683.25,-1516.5"/>
<text text-anchor="middle" x="651" y="-1506.1" font-family="Times,serif" font-size="8.00">random_vec</text>
<text text-anchor="end" x="675.5" y="-1497.1" font-family="Times,serif" font-size="8.00">0 (0.0%)</text>
<text text-anchor="end" x="675.5" y="-1488.1" font-family="Times,serif" font-size="8.00">of 311 (95.7%)</text>
</g>
<!-- N6 -->
<g id="node7" class="node"><title>N6</title>
<polygon fill="none" stroke="black" points="683.25,-1419.5 618.75,-1419.5 618.75,-1366.5 683.25,-1366.5 683.25,-1419.5"/>
<text text-anchor="middle" x="651" y="-1409.1" font-family="Times,serif" font-size="8.00">std</text>
<text text-anchor="middle" x="651" y="-1400.1" font-family="Times,serif" font-size="8.00">generate</text>
<text text-anchor="middle" x="651" y="-1391.1" font-family="Times,serif" font-size="8.00">(inline)</text>
<text text-anchor="end" x="675.5" y="-1382.1" font-family="Times,serif" font-size="8.00">0 (0.0%)</text>
<text text-anchor="end" x="675.5" y="-1373.1" font-family="Times,serif" font-size="8.00">of 270 (83.1%)</text>
</g>
<!-- N5&#45;&gt;N6 -->
<g id="edge4" class="edge"><title>N5&#45;&gt;N6</title>
<path fill="none" stroke="black" stroke-width="2" stroke-dasharray="5,2" d="M651,-1481.29C651,-1467.5 651,-1447.44 651,-1430.03"/>
<polygon fill="black" stroke="black" points="654.5,-1429.61 651,-1419.61 647.5,-1429.61 654.5,-1429.61"/>
<text text-anchor="middle" x="661.5" y="-1442.3" font-family="Times,serif" font-size="14.00">270</text>
</g>
<!-- N20 -->
<g id="node21" class="node"><title>N20</title>
<polygon fill="none" stroke="black" points="584,-1415 522,-1415 522,-1371 584,-1371 584,-1415"/>
<text text-anchor="middle" x="553" y="-1404.6" font-family="Times,serif" font-size="8.00">vector</text>
<text text-anchor="middle" x="553" y="-1395.6" font-family="Times,serif" font-size="8.00">(inline)</text>
<text text-anchor="end" x="576" y="-1386.6" font-family="Times,serif" font-size="8.00">0 (0.0%)</text>
<text text-anchor="end" x="576" y="-1377.6" font-family="Times,serif" font-size="8.00">of 41 (12.6%)</text>
</g>
<!-- N5&#45;&gt;N20 -->
<g id="edge20" class="edge"><title>N5&#45;&gt;N20</title>
<path fill="none" stroke="black" stroke-dasharray="5,2" d="M635.255,-1481.29C620.484,-1465.62 598.079,-1441.84 580.381,-1423.06"/>
<polygon fill="black" stroke="black" points="582.525,-1420.23 573.12,-1415.35 577.431,-1425.03 582.525,-1420.23"/>
<text text-anchor="middle" x="614" y="-1442.3" font-family="Times,serif" font-size="14.00">41</text>
</g>
<!-- N7 -->
<g id="node8" class="node"><title>N7</title>
<polygon fill="none" stroke="black" points="695.25,-905 606.75,-905 606.75,-845 695.25,-845 695.25,-905"/>
<text text-anchor="middle" x="651" y="-891.48" font-family="Times,serif" font-size="11.90">operator</text>
<text text-anchor="middle" x="651" y="-878.48" font-family="Times,serif" font-size="11.90">(inline)</text>
<text text-anchor="end" x="687.5" y="-865.48" font-family="Times,serif" font-size="11.90">2 (0.6%)</text>
<text text-anchor="end" x="687.5" y="-852.48" font-family="Times,serif" font-size="11.90">of 265 (81.5%)</text>
</g>
<!-- N6&#45;&gt;N7 -->
<g id="edge5" class="edge"><title>N6&#45;&gt;N7</title>
<path fill="none" stroke="black" stroke-width="2" stroke-dasharray="5,2" d="M651,-1366.42C651,-1343.12 651,-1307.75 651,-1277 651,-1277 651,-1277 651,-993 651,-967.223 651,-938.251 651,-915.587"/>
<polygon fill="black" stroke="black" points="654.5,-915.331 651,-905.331 647.5,-915.331 654.5,-915.331"/>
<text text-anchor="middle" x="661.5" y="-1130.3" font-family="Times,serif" font-size="14.00">263</text>
</g>
<!-- N23 -->
<g id="node24" class="node"><title>N23</title>
<polygon fill="none" stroke="black" points="762.25,-1314 679.75,-1314 679.75,-1238 762.25,-1238 762.25,-1314"/>
<text text-anchor="middle" x="721" y="-1297.76" font-family="Times,serif" font-size="15.30">__gnu_cxx</text>
<text text-anchor="middle" x="721" y="-1280.76" font-family="Times,serif" font-size="15.30">operator!=</text>
<text text-anchor="middle" x="721" y="-1263.76" font-family="Times,serif" font-size="15.30">(inline)</text>
<text text-anchor="end" x="754.5" y="-1246.76" font-family="Times,serif" font-size="15.30">7 (2.2%)</text>
</g>
<!-- N6&#45;&gt;N23 -->
<g id="edge25" class="edge"><title>N6&#45;&gt;N23</title>
<path fill="none" stroke="black" stroke-dasharray="5,2" d="M666.535,-1366.48C674.347,-1353.64 684.055,-1337.7 693.102,-1322.83"/>
<polygon fill="black" stroke="black" points="696.124,-1324.6 698.333,-1314.24 690.144,-1320.96 696.124,-1324.6"/>
<text text-anchor="middle" x="689.5" y="-1336.3" font-family="Times,serif" font-size="14.00">7</text>
</g>
<!-- N8 -->
<g id="node9" class="node"><title>N8</title>
<polygon fill="none" stroke="black" points="732,-792 570,-792 570,-688 732,-688 732,-792"/>
<text text-anchor="middle" x="651" y="-776.16" font-family="Times,serif" font-size="14.80">std</text>
<text text-anchor="middle" x="651" y="-760.16" font-family="Times,serif" font-size="14.80">uniform_int_distribution</text>
<text text-anchor="middle" x="651" y="-744.16" font-family="Times,serif" font-size="14.80">operator</text>
<text text-anchor="middle" x="651" y="-728.16" font-family="Times,serif" font-size="14.80">(inline)</text>
<text text-anchor="end" x="724" y="-712.16" font-family="Times,serif" font-size="14.80">6 (1.8%)</text>
<text text-anchor="end" x="724" y="-696.16" font-family="Times,serif" font-size="14.80">of 263 (80.9%)</text>
</g>
<!-- N7&#45;&gt;N8 -->
<g id="edge6" class="edge"><title>N7&#45;&gt;N8</title>
<path fill="none" stroke="black" stroke-width="2" stroke-dasharray="5,2" d="M651,-844.813C651,-832.263 651,-817.091 651,-802.268"/>
<polygon fill="black" stroke="black" points="654.5,-802.099 651,-792.099 647.5,-802.099 654.5,-802.099"/>
<text text-anchor="middle" x="661.5" y="-814.3" font-family="Times,serif" font-size="14.00">263</text>
</g>
<!-- N9 -->
<g id="node10" class="node"><title>N9</title>
<polygon fill="none" stroke="black" points="889,-635.5 413,-635.5 413,-372.5 889,-372.5 889,-635.5"/>
<text text-anchor="middle" x="651" y="-594.14" font-family="Times,serif" font-size="46.70">std</text>
<text text-anchor="middle" x="651" y="-543.14" font-family="Times,serif" font-size="46.70">uniform_int_distribution</text>
<text text-anchor="middle" x="651" y="-492.14" font-family="Times,serif" font-size="46.70">operator</text>
<text text-anchor="end" x="881" y="-441.14" font-family="Times,serif" font-size="46.70">195 (60.0%)</text>
<text text-anchor="end" x="881" y="-390.14" font-family="Times,serif" font-size="46.70">of 257 (79.1%)</text>
</g>
<!-- N8&#45;&gt;N9 -->
<g id="edge7" class="edge"><title>N8&#45;&gt;N9</title>
<path fill="none" stroke="black" stroke-width="2" d="M651,-687.937C651,-675.153 651,-660.81 651,-645.928"/>
<polygon fill="black" stroke="black" points="654.5,-645.551 651,-635.551 647.5,-645.551 654.5,-645.551"/>
<text text-anchor="middle" x="661.5" y="-658.3" font-family="Times,serif" font-size="14.00">257</text>
</g>
<!-- N12 -->
<g id="node13" class="node"><title>N12</title>
<polygon fill="none" stroke="black" points="782.25,-319.5 519.75,-319.5 519.75,-176.5 782.25,-176.5 782.25,-319.5"/>
<text text-anchor="middle" x="651" y="-296.14" font-family="Times,serif" font-size="24.20">std</text>
<text text-anchor="middle" x="651" y="-269.14" font-family="Times,serif" font-size="24.20">mersenne_twister_engine</text>
<text text-anchor="middle" x="651" y="-242.14" font-family="Times,serif" font-size="24.20">operator</text>
<text text-anchor="end" x="774.5" y="-215.14" font-family="Times,serif" font-size="24.20">34 (10.5%)</text>
<text text-anchor="end" x="774.5" y="-188.14" font-family="Times,serif" font-size="24.20">of 57 (17.5%)</text>
</g>
<!-- N9&#45;&gt;N12 -->
<g id="edge12" class="edge"><title>N9&#45;&gt;N12</title>
<path fill="none" stroke="black" stroke-width="1.05231" d="M651,-372.28C651,-357.847 651,-343.478 651,-329.92"/>
<polygon fill="black" stroke="black" points="654.5,-329.723 651,-319.723 647.5,-329.723 654.5,-329.723"/>
<text text-anchor="middle" x="658" y="-342.3" font-family="Times,serif" font-size="14.00">57</text>
</g>
<!-- N30 -->
<g id="node31" class="node"><title>N30</title>
<polygon fill="none" stroke="black" points="501.25,-300 350.75,-300 350.75,-196 501.25,-196 501.25,-300"/>
<text text-anchor="middle" x="426" y="-284.64" font-family="Times,serif" font-size="14.20">std</text>
<text text-anchor="middle" x="426" y="-268.64" font-family="Times,serif" font-size="14.20">uniform_int_distribution</text>
<text text-anchor="middle" x="426" y="-252.64" font-family="Times,serif" font-size="14.20">param_type</text>
<text text-anchor="middle" x="426" y="-236.64" font-family="Times,serif" font-size="14.20">b</text>
<text text-anchor="middle" x="426" y="-220.64" font-family="Times,serif" font-size="14.20">(inline)</text>
<text text-anchor="end" x="493.5" y="-204.64" font-family="Times,serif" font-size="14.20">5 (1.5%)</text>
</g>
<!-- N9&#45;&gt;N30 -->
<g id="edge32" class="edge"><title>N9&#45;&gt;N30</title>
<path fill="none" stroke="black" stroke-dasharray="5,2" d="M535.205,-372.28C515.147,-349.637 495.23,-327.153 478.005,-307.708"/>
<polygon fill="black" stroke="black" points="480.545,-305.297 471.294,-300.132 475.305,-309.938 480.545,-305.297"/>
<text text-anchor="middle" x="521.5" y="-342.3" font-family="Times,serif" font-size="14.00">5</text>
</g>
<!-- N10&#45;&gt;N5 -->
<g id="edge10" class="edge"><title>N10&#45;&gt;N5</title>
<path fill="none" stroke="black" stroke-width="2" d="M651,-1578.45C651,-1564.24 651,-1543.47 651,-1526.87"/>
<polygon fill="black" stroke="black" points="654.5,-1526.68 651,-1516.68 647.5,-1526.68 654.5,-1526.68"/>
<text text-anchor="middle" x="661.5" y="-1548.3" font-family="Times,serif" font-size="14.00">157</text>
</g>
<!-- N25 -->
<g id="node26" class="node"><title>N25</title>
<polygon fill="none" stroke="black" points="775,-1525.5 721,-1525.5 721,-1472.5 775,-1472.5 775,-1525.5"/>
<text text-anchor="middle" x="748" y="-1515.1" font-family="Times,serif" font-size="8.00">std</text>
<text text-anchor="middle" x="748" y="-1506.1" font-family="Times,serif" font-size="8.00">all_of</text>
<text text-anchor="middle" x="748" y="-1497.1" font-family="Times,serif" font-size="8.00">(inline)</text>
<text text-anchor="end" x="767" y="-1488.1" font-family="Times,serif" font-size="8.00">0 (0.0%)</text>
<text text-anchor="end" x="767" y="-1479.1" font-family="Times,serif" font-size="8.00">of 7 (2.2%)</text>
</g>
<!-- N10&#45;&gt;N25 -->
<g id="edge23" class="edge"><title>N10&#45;&gt;N25</title>
<path fill="none" stroke="black" stroke-dasharray="5,2" d="M667.445,-1578.37C677.393,-1568.36 690.362,-1555.38 702,-1544 705.659,-1540.42 709.5,-1536.7 713.336,-1533"/>
<polygon fill="black" stroke="black" points="715.876,-1535.41 720.661,-1525.96 711.026,-1530.36 715.876,-1535.41"/>
<text text-anchor="middle" x="705.5" y="-1548.3" font-family="Times,serif" font-size="14.00">7</text>
</g>
<!-- N11&#45;&gt;N5 -->
<g id="edge11" class="edge"><title>N11&#45;&gt;N5</title>
<path fill="none" stroke="black" stroke-width="2" d="M728.1,-1578.24C723.854,-1567.7 717.398,-1554.2 709,-1544 702.493,-1536.1 694.297,-1528.79 686.133,-1522.49"/>
<polygon fill="black" stroke="black" points="688.173,-1519.65 678.042,-1516.55 684.028,-1525.29 688.173,-1519.65"/>
<text text-anchor="middle" x="729.5" y="-1548.3" font-family="Times,serif" font-size="14.00">154</text>
</g>
<!-- N26 -->
<g id="node27" class="node"><title>N26</title>
<polygon fill="none" stroke="black" points="857,-1525.5 803,-1525.5 803,-1472.5 857,-1472.5 857,-1525.5"/>
<text text-anchor="middle" x="830" y="-1515.1" font-family="Times,serif" font-size="8.00">std</text>
<text text-anchor="middle" x="830" y="-1506.1" font-family="Times,serif" font-size="8.00">any_of</text>
<text text-anchor="middle" x="830" y="-1497.1" font-family="Times,serif" font-size="8.00">(inline)</text>
<text text-anchor="end" x="849" y="-1488.1" font-family="Times,serif" font-size="8.00">0 (0.0%)</text>
<text text-anchor="end" x="849" y="-1479.1" font-family="Times,serif" font-size="8.00">of 7 (2.2%)</text>
</g>
<!-- N11&#45;&gt;N26 -->
<g id="edge26" class="edge"><title>N11&#45;&gt;N26</title>
<path fill="none" stroke="black" stroke-dasharray="5,2" d="M750.722,-1578.45C763.371,-1565.93 781.154,-1548.34 796.672,-1532.98"/>
<polygon fill="black" stroke="black" points="799.43,-1535.18 804.076,-1525.65 794.506,-1530.2 799.43,-1535.18"/>
<text text-anchor="middle" x="787.5" y="-1548.3" font-family="Times,serif" font-size="14.00">7</text>
</g>
<!-- N21 -->
<g id="node22" class="node"><title>N21</title>
<polygon fill="none" stroke="black" points="768.25,-123.5 533.75,-123.5 533.75,-0.5 768.25,-0.5 768.25,-123.5"/>
<text text-anchor="middle" x="651" y="-102.46" font-family="Times,serif" font-size="21.30">std</text>
<text text-anchor="middle" x="651" y="-79.46" font-family="Times,serif" font-size="21.30">mersenne_twister_engine</text>
<text text-anchor="middle" x="651" y="-56.46" font-family="Times,serif" font-size="21.30">_M_gen_rand</text>
<text text-anchor="middle" x="651" y="-33.46" font-family="Times,serif" font-size="21.30">(inline)</text>
<text text-anchor="end" x="760.5" y="-10.46" font-family="Times,serif" font-size="21.30">23 (7.1%)</text>
</g>
<!-- N12&#45;&gt;N21 -->
<g id="edge21" class="edge"><title>N12&#45;&gt;N21</title>
<path fill="none" stroke="black" stroke-dasharray="5,2" d="M651,-176.387C651,-162.36 651,-147.631 651,-133.605"/>
<polygon fill="black" stroke="black" points="654.5,-133.535 651,-123.535 647.5,-133.535 654.5,-133.535"/>
<text text-anchor="middle" x="658" y="-146.3" font-family="Times,serif" font-size="14.00">23</text>
</g>
<!-- N13 -->
<g id="node14" class="node"><title>N13</title>
<polygon fill="none" stroke="black" points="394.25,-526 -0.25,-526 -0.25,-482 394.25,-482 394.25,-526"/>
<text text-anchor="middle" x="197" y="-515.6" font-family="Times,serif" font-size="8.00">_ZSt10__fill_n_aIPlmlEN9__gnu_cxx11__enable_ifIXsr11__is_scalarIT1_EE7__valueET_E6__typeES4_T0_RKS3_</text>
<text text-anchor="middle" x="197" y="-506.6" font-family="Times,serif" font-size="8.00">(inline)</text>
<text text-anchor="end" x="386.5" y="-497.6" font-family="Times,serif" font-size="8.00">0 (0.0%)</text>
<text text-anchor="end" x="386.5" y="-488.6" font-family="Times,serif" font-size="8.00">of 41 (12.6%)</text>
</g>
<!-- N14 -->
<g id="node15" class="node"><title>N14</title>
<polygon fill="none" stroke="black" points="286.25,-280 107.75,-280 107.75,-216 286.25,-216 286.25,-280"/>
<text text-anchor="middle" x="197" y="-255.36" font-family="Times,serif" font-size="25.80">__memset_sse2</text>
<text text-anchor="end" x="278.5" y="-227.36" font-family="Times,serif" font-size="25.80">41 (12.6%)</text>
</g>
<!-- N13&#45;&gt;N14 -->
<g id="edge14" class="edge"><title>N13&#45;&gt;N14</title>
<path fill="none" stroke="black" d="M197,-481.781C197,-439.664 197,-344.863 197,-290.119"/>
<polygon fill="black" stroke="black" points="200.5,-290.058 197,-280.058 193.5,-290.058 200.5,-290.058"/>
<text text-anchor="middle" x="204" y="-342.3" font-family="Times,serif" font-size="14.00">41</text>
</g>
<!-- N15 -->
<g id="node16" class="node"><title>N15</title>
<polygon fill="none" stroke="black" points="416,-1020.5 318,-1020.5 318,-967.5 416,-967.5 416,-1020.5"/>
<text text-anchor="middle" x="367" y="-1010.1" font-family="Times,serif" font-size="8.00">std</text>
<text text-anchor="middle" x="367" y="-1001.1" font-family="Times,serif" font-size="8.00">__uninitialized_default_n</text>
<text text-anchor="middle" x="367" y="-992.1" font-family="Times,serif" font-size="8.00">(inline)</text>
<text text-anchor="end" x="408" y="-983.1" font-family="Times,serif" font-size="8.00">0 (0.0%)</text>
<text text-anchor="end" x="408" y="-974.1" font-family="Times,serif" font-size="8.00">of 41 (12.6%)</text>
</g>
<!-- N16 -->
<g id="node17" class="node"><title>N16</title>
<polygon fill="none" stroke="black" points="419.25,-906 314.75,-906 314.75,-844 419.25,-844 419.25,-906"/>
<text text-anchor="middle" x="367" y="-895.6" font-family="Times,serif" font-size="8.00">std</text>
<text text-anchor="middle" x="367" y="-886.6" font-family="Times,serif" font-size="8.00">__uninitialized_default_n_1</text>
<text text-anchor="middle" x="367" y="-877.6" font-family="Times,serif" font-size="8.00">__uninit_default_n</text>
<text text-anchor="middle" x="367" y="-868.6" font-family="Times,serif" font-size="8.00">(inline)</text>
<text text-anchor="end" x="411.5" y="-859.6" font-family="Times,serif" font-size="8.00">0 (0.0%)</text>
<text text-anchor="end" x="411.5" y="-850.6" font-family="Times,serif" font-size="8.00">of 41 (12.6%)</text>
</g>
<!-- N15&#45;&gt;N16 -->
<g id="edge17" class="edge"><title>N15&#45;&gt;N16</title>
<path fill="none" stroke="black" stroke-dasharray="5,2" d="M367,-967.324C367,-952.395 367,-933.249 367,-916.347"/>
<polygon fill="black" stroke="black" points="370.5,-916.171 367,-906.171 363.5,-916.171 370.5,-916.171"/>
<text text-anchor="middle" x="374" y="-928.3" font-family="Times,serif" font-size="14.00">41</text>
</g>
<!-- N18 -->
<g id="node19" class="node"><title>N18</title>
<polygon fill="none" stroke="black" points="291,-766.5 229,-766.5 229,-713.5 291,-713.5 291,-766.5"/>
<text text-anchor="middle" x="260" y="-756.1" font-family="Times,serif" font-size="8.00">std</text>
<text text-anchor="middle" x="260" y="-747.1" font-family="Times,serif" font-size="8.00">fill_n</text>
<text text-anchor="middle" x="260" y="-738.1" font-family="Times,serif" font-size="8.00">(inline)</text>
<text text-anchor="end" x="283" y="-729.1" font-family="Times,serif" font-size="8.00">0 (0.0%)</text>
<text text-anchor="end" x="283" y="-720.1" font-family="Times,serif" font-size="8.00">of 41 (12.6%)</text>
</g>
<!-- N16&#45;&gt;N18 -->
<g id="edge18" class="edge"><title>N16&#45;&gt;N18</title>
<path fill="none" stroke="black" stroke-dasharray="5,2" d="M342.72,-843.82C326.099,-823.161 304.05,-795.754 286.896,-774.432"/>
<polygon fill="black" stroke="black" points="289.579,-772.182 280.583,-766.585 284.125,-776.57 289.579,-772.182"/>
<text text-anchor="middle" x="334" y="-814.3" font-family="Times,serif" font-size="14.00">41</text>
</g>
<!-- N17 -->
<g id="node18" class="node"><title>N17</title>
<polygon fill="none" stroke="black" points="421.25,-1160.5 316.75,-1160.5 316.75,-1107.5 421.25,-1107.5 421.25,-1160.5"/>
<text text-anchor="middle" x="369" y="-1150.1" font-family="Times,serif" font-size="8.00">std</text>
<text text-anchor="middle" x="369" y="-1141.1" font-family="Times,serif" font-size="8.00">__uninitialized_default_n_a</text>
<text text-anchor="middle" x="369" y="-1132.1" font-family="Times,serif" font-size="8.00">(inline)</text>
<text text-anchor="end" x="413.5" y="-1123.1" font-family="Times,serif" font-size="8.00">0 (0.0%)</text>
<text text-anchor="end" x="413.5" y="-1114.1" font-family="Times,serif" font-size="8.00">of 41 (12.6%)</text>
</g>
<!-- N17&#45;&gt;N15 -->
<g id="edge15" class="edge"><title>N17&#45;&gt;N15</title>
<path fill="none" stroke="black" stroke-dasharray="5,2" d="M368.629,-1107.37C368.318,-1085.91 367.87,-1055.05 367.523,-1031.09"/>
<polygon fill="black" stroke="black" points="371.021,-1030.91 367.376,-1020.96 364.022,-1031.01 371.021,-1030.91"/>
<text text-anchor="middle" x="375" y="-1052.3" font-family="Times,serif" font-size="14.00">41</text>
</g>
<!-- N18&#45;&gt;N13 -->
<g id="edge13" class="edge"><title>N18&#45;&gt;N13</title>
<path fill="none" stroke="black" stroke-dasharray="5,2" d="M253.017,-713.064C241.342,-669.698 217.906,-582.652 205.368,-536.079"/>
<polygon fill="black" stroke="black" points="208.699,-534.99 202.719,-526.243 201.94,-536.81 208.699,-534.99"/>
<text text-anchor="middle" x="249" y="-658.3" font-family="Times,serif" font-size="14.00">41</text>
</g>
<!-- N19 -->
<g id="node20" class="node"><title>N19</title>
<polygon fill="none" stroke="black" points="418,-1307 332,-1307 332,-1245 418,-1245 418,-1307"/>
<text text-anchor="middle" x="375" y="-1296.6" font-family="Times,serif" font-size="8.00">std</text>
<text text-anchor="middle" x="375" y="-1287.6" font-family="Times,serif" font-size="8.00">vector</text>
<text text-anchor="middle" x="375" y="-1278.6" font-family="Times,serif" font-size="8.00">_M_default_initialize</text>
<text text-anchor="middle" x="375" y="-1269.6" font-family="Times,serif" font-size="8.00">(inline)</text>
<text text-anchor="end" x="410" y="-1260.6" font-family="Times,serif" font-size="8.00">0 (0.0%)</text>
<text text-anchor="end" x="410" y="-1251.6" font-family="Times,serif" font-size="8.00">of 41 (12.6%)</text>
</g>
<!-- N19&#45;&gt;N17 -->
<g id="edge19" class="edge"><title>N19&#45;&gt;N17</title>
<path fill="none" stroke="black" stroke-dasharray="5,2" d="M373.713,-1244.97C372.781,-1223.23 371.518,-1193.76 370.534,-1170.8"/>
<polygon fill="black" stroke="black" points="374.029,-1170.6 370.104,-1160.75 367.035,-1170.9 374.029,-1170.6"/>
<text text-anchor="middle" x="380" y="-1208.3" font-family="Times,serif" font-size="14.00">41</text>
</g>
<!-- N20&#45;&gt;N19 -->
<g id="edge16" class="edge"><title>N20&#45;&gt;N19</title>
<path fill="none" stroke="black" stroke-dasharray="5,2" d="M521.995,-1371.97C495.774,-1355.03 457.656,-1330.4 426.808,-1310.47"/>
<polygon fill="black" stroke="black" points="428.615,-1307.47 418.316,-1304.99 424.816,-1313.35 428.615,-1307.47"/>
<text text-anchor="middle" x="486" y="-1336.3" font-family="Times,serif" font-size="14.00">41</text>
</g>
<!-- N22 -->
<g id="node23" class="node"><title>N22</title>
<polygon fill="none" stroke="black" points="864,-1185.5 756,-1185.5 756,-1082.5 864,-1082.5 864,-1185.5"/>
<text text-anchor="middle" x="810" y="-1167.42" font-family="Times,serif" font-size="17.60">std</text>
<text text-anchor="middle" x="810" y="-1148.42" font-family="Times,serif" font-size="17.60">__find_if</text>
<text text-anchor="middle" x="810" y="-1129.42" font-family="Times,serif" font-size="17.60">(inline)</text>
<text text-anchor="end" x="856" y="-1110.42" font-family="Times,serif" font-size="17.60">12 (3.7%)</text>
<text text-anchor="end" x="856" y="-1091.42" font-family="Times,serif" font-size="17.60">of 14 (4.3%)</text>
</g>
<!-- N22&#45;&gt;N22 -->
<g id="edge27" class="edge"><title>N22&#45;&gt;N22</title>
<path fill="none" stroke="black" stroke-dasharray="5,2" d="M864.007,-1147.97C874.529,-1146.35 882,-1141.69 882,-1134 882,-1129.07 878.934,-1125.39 873.964,-1122.95"/>
<polygon fill="black" stroke="black" points="874.588,-1119.49 864.007,-1120.03 872.615,-1126.2 874.588,-1119.49"/>
<text text-anchor="middle" x="885.5" y="-1130.3" font-family="Times,serif" font-size="14.00">7</text>
</g>
<!-- N31 -->
<g id="node32" class="node"><title>N31</title>
<polygon fill="none" stroke="black" points="761.25,-1029.5 704.75,-1029.5 704.75,-958.5 761.25,-958.5 761.25,-1029.5"/>
<text text-anchor="middle" x="733" y="-1019.1" font-family="Times,serif" font-size="8.00">__gnu_cxx</text>
<text text-anchor="middle" x="733" y="-1010.1" font-family="Times,serif" font-size="8.00">__ops</text>
<text text-anchor="middle" x="733" y="-1001.1" font-family="Times,serif" font-size="8.00">_Iter_negate</text>
<text text-anchor="middle" x="733" y="-992.1" font-family="Times,serif" font-size="8.00">operator</text>
<text text-anchor="middle" x="733" y="-983.1" font-family="Times,serif" font-size="8.00">(inline)</text>
<text text-anchor="end" x="753.5" y="-974.1" font-family="Times,serif" font-size="8.00">0 (0.0%)</text>
<text text-anchor="end" x="753.5" y="-965.1" font-family="Times,serif" font-size="8.00">of 2 (0.6%)</text>
</g>
<!-- N22&#45;&gt;N31 -->
<g id="edge34" class="edge"><title>N22&#45;&gt;N31</title>
<path fill="none" stroke="black" stroke-dasharray="5,2" d="M781.765,-1082.4C773.738,-1068.01 765.068,-1052.47 757.296,-1038.54"/>
<polygon fill="black" stroke="black" points="760.263,-1036.68 752.334,-1029.65 754.15,-1040.09 760.263,-1036.68"/>
<text text-anchor="middle" x="774.5" y="-1052.3" font-family="Times,serif" font-size="14.00">2</text>
</g>
<!-- N24 -->
<g id="node25" class="node"><title>N24</title>
<polygon fill="none" stroke="black" points="839.25,-1302.5 780.75,-1302.5 780.75,-1249.5 839.25,-1249.5 839.25,-1302.5"/>
<text text-anchor="middle" x="810" y="-1292.1" font-family="Times,serif" font-size="8.00">std</text>
<text text-anchor="middle" x="810" y="-1283.1" font-family="Times,serif" font-size="8.00">__find_if_not</text>
<text text-anchor="middle" x="810" y="-1274.1" font-family="Times,serif" font-size="8.00">(inline)</text>
<text text-anchor="end" x="831.5" y="-1265.1" font-family="Times,serif" font-size="8.00">0 (0.0%)</text>
<text text-anchor="end" x="831.5" y="-1256.1" font-family="Times,serif" font-size="8.00">of 7 (2.2%)</text>
</g>
<!-- N24&#45;&gt;N22 -->
<g id="edge22" class="edge"><title>N24&#45;&gt;N22</title>
<path fill="none" stroke="black" stroke-dasharray="5,2" d="M810,-1249.32C810,-1234.27 810,-1214.56 810,-1195.77"/>
<polygon fill="black" stroke="black" points="813.5,-1195.75 810,-1185.75 806.5,-1195.75 813.5,-1195.75"/>
<text text-anchor="middle" x="813.5" y="-1208.3" font-family="Times,serif" font-size="14.00">7</text>
</g>
<!-- N28 -->
<g id="node29" class="node"><title>N28</title>
<polygon fill="none" stroke="black" points="786,-1419.5 732,-1419.5 732,-1366.5 786,-1366.5 786,-1419.5"/>
<text text-anchor="middle" x="759" y="-1409.1" font-family="Times,serif" font-size="8.00">std</text>
<text text-anchor="middle" x="759" y="-1400.1" font-family="Times,serif" font-size="8.00">find_if_not</text>
<text text-anchor="middle" x="759" y="-1391.1" font-family="Times,serif" font-size="8.00">(inline)</text>
<text text-anchor="end" x="778" y="-1382.1" font-family="Times,serif" font-size="8.00">0 (0.0%)</text>
<text text-anchor="end" x="778" y="-1373.1" font-family="Times,serif" font-size="8.00">of 7 (2.2%)</text>
</g>
<!-- N25&#45;&gt;N28 -->
<g id="edge30" class="edge"><title>N25&#45;&gt;N28</title>
<path fill="none" stroke="black" stroke-dasharray="5,2" d="M750.719,-1472.29C752.068,-1459.54 753.719,-1443.93 755.191,-1430.01"/>
<polygon fill="black" stroke="black" points="758.703,-1430.09 756.274,-1419.77 751.742,-1429.35 758.703,-1430.09"/>
<text text-anchor="middle" x="757.5" y="-1442.3" font-family="Times,serif" font-size="14.00">7</text>
</g>
<!-- N29 -->
<g id="node30" class="node"><title>N29</title>
<polygon fill="none" stroke="black" points="864,-1419.5 810,-1419.5 810,-1366.5 864,-1366.5 864,-1419.5"/>
<text text-anchor="middle" x="837" y="-1409.1" font-family="Times,serif" font-size="8.00">std</text>
<text text-anchor="middle" x="837" y="-1400.1" font-family="Times,serif" font-size="8.00">none_of</text>
<text text-anchor="middle" x="837" y="-1391.1" font-family="Times,serif" font-size="8.00">(inline)</text>
<text text-anchor="end" x="856" y="-1382.1" font-family="Times,serif" font-size="8.00">0 (0.0%)</text>
<text text-anchor="end" x="856" y="-1373.1" font-family="Times,serif" font-size="8.00">of 7 (2.2%)</text>
</g>
<!-- N26&#45;&gt;N29 -->
<g id="edge28" class="edge"><title>N26&#45;&gt;N29</title>
<path fill="none" stroke="black" stroke-dasharray="5,2" d="M831.73,-1472.29C832.589,-1459.54 833.639,-1443.93 834.576,-1430.01"/>
<polygon fill="black" stroke="black" points="838.086,-1429.99 835.265,-1419.77 831.102,-1429.51 838.086,-1429.99"/>
<text text-anchor="middle" x="836.5" y="-1442.3" font-family="Times,serif" font-size="14.00">7</text>
</g>
<!-- N27 -->
<g id="node28" class="node"><title>N27</title>
<polygon fill="none" stroke="black" points="912,-1302.5 858,-1302.5 858,-1249.5 912,-1249.5 912,-1302.5"/>
<text text-anchor="middle" x="885" y="-1292.1" font-family="Times,serif" font-size="8.00">std</text>
<text text-anchor="middle" x="885" y="-1283.1" font-family="Times,serif" font-size="8.00">find_if</text>
<text text-anchor="middle" x="885" y="-1274.1" font-family="Times,serif" font-size="8.00">(inline)</text>
<text text-anchor="end" x="904" y="-1265.1" font-family="Times,serif" font-size="8.00">0 (0.0%)</text>
<text text-anchor="end" x="904" y="-1256.1" font-family="Times,serif" font-size="8.00">of 7 (2.2%)</text>
</g>
<!-- N27&#45;&gt;N22 -->
<g id="edge24" class="edge"><title>N27&#45;&gt;N22</title>
<path fill="none" stroke="black" stroke-dasharray="5,2" d="M871.244,-1249.32C863.03,-1233.99 852.234,-1213.84 841.997,-1194.73"/>
<polygon fill="black" stroke="black" points="844.995,-1192.91 837.188,-1185.75 838.825,-1196.22 844.995,-1192.91"/>
<text text-anchor="middle" x="857.5" y="-1208.3" font-family="Times,serif" font-size="14.00">7</text>
</g>
<!-- N28&#45;&gt;N24 -->
<g id="edge31" class="edge"><title>N28&#45;&gt;N24</title>
<path fill="none" stroke="black" stroke-dasharray="5,2" d="M770.319,-1366.48C777.4,-1350.51 786.621,-1329.72 794.392,-1312.2"/>
<polygon fill="black" stroke="black" points="797.682,-1313.41 798.537,-1302.85 791.283,-1310.57 797.682,-1313.41"/>
<text text-anchor="middle" x="787.5" y="-1336.3" font-family="Times,serif" font-size="14.00">7</text>
</g>
<!-- N29&#45;&gt;N27 -->
<g id="edge29" class="edge"><title>N29&#45;&gt;N27</title>
<path fill="none" stroke="black" stroke-dasharray="5,2" d="M847.653,-1366.48C854.318,-1350.51 862.996,-1329.72 870.31,-1312.2"/>
<polygon fill="black" stroke="black" points="873.589,-1313.43 874.211,-1302.85 867.129,-1310.73 873.589,-1313.43"/>
<text text-anchor="middle" x="864.5" y="-1336.3" font-family="Times,serif" font-size="14.00">7</text>
</g>
<!-- N31&#45;&gt;N7 -->
<g id="edge33" class="edge"><title>N31&#45;&gt;N7</title>
<path fill="none" stroke="black" stroke-dasharray="5,2" d="M708.619,-958.213C698.845,-944.267 687.555,-928.157 677.572,-913.914"/>
<polygon fill="black" stroke="black" points="680.156,-911.503 671.551,-905.322 674.424,-915.52 680.156,-911.503"/>
<text text-anchor="middle" x="697.5" y="-928.3" font-family="Times,serif" font-size="14.00">2</text>
</g>
</g>
</g></svg>
